<svg width="290" height="290" viewBox="0 0 290 290" fill="none" xmlns="http://www.w3.org/2000/svg">
<path d="M174.736 23.0611L171.621 18.6992C158.573 0.433585 131.427 0.433585 118.379 18.6992L115.265 23.0611C108.376 32.7051 96.8101 37.8693 85.0313 36.5604L71.1439 35.0174C50.3079 32.7023 32.7023 50.3079 35.0174 71.1439L36.5604 85.0313C37.8693 96.8101 32.7051 108.376 23.0611 115.265L18.6992 118.379C0.433585 131.427 0.433585 158.573 18.6992 171.621L23.0611 174.736C32.7051 181.625 37.8693 193.191 36.5604 204.97L35.0174 218.857C32.7023 239.692 50.3079 257.299 71.1439 254.983L85.0313 253.44C96.8101 252.132 108.376 257.296 115.265 266.94L118.379 271.301C131.427 289.566 158.573 289.566 171.621 271.301L174.736 266.94C181.625 257.296 193.191 252.132 204.97 253.44L218.857 254.983C239.692 257.299 257.299 239.692 254.983 218.857L253.44 204.97C252.132 193.191 257.296 181.625 266.94 174.736L271.301 171.621C289.566 158.573 289.566 131.427 271.301 118.379L266.94 115.265C257.296 108.376 252.132 96.8101 253.44 85.0313L254.983 71.1439C257.299 50.3079 239.692 32.7023 218.857 35.0174L204.97 36.5604C193.191 37.8693 181.625 32.7051 174.736 23.0611Z" stroke="#0EB60B" stroke-width="10" stroke-linecap="round" stroke-linejoin="round"/>
<path d="M96 145.358L126.012 174.787C127.662 176.404 130.338 176.404 131.988 174.787L195 113" stroke="#0EB60B" stroke-width="10" stroke-linecap="round" stroke-linejoin="round"/>
</svg>
