<svg width="179" height="199" viewBox="0 0 179 199" fill="none" xmlns="http://www.w3.org/2000/svg">
<path d="M169 189V169.111C169 158.561 164.812 148.444 157.357 140.984C149.903 133.524 139.792 129.333 129.25 129.333H119.312C116.677 129.333 114.149 128.286 112.286 126.421C110.422 124.556 109.375 122.026 109.375 119.389V69.6667C109.375 64.3918 107.281 59.333 103.554 55.6031C99.8265 51.8732 94.7712 49.7778 89.5 49.7778C84.2288 49.7778 79.1735 51.8732 75.4463 55.6031C71.719 59.333 69.625 64.3918 69.625 69.6667V159.167L45.775 127.344C43.9237 124.874 41.5231 122.869 38.7634 121.489C36.0036 120.108 32.9605 119.389 29.875 119.389H25.5621C16.9662 119.389 10 126.36 10 134.962C10 137.786 10.7652 140.561 12.2161 142.977L39.8125 189M89.5 19.9444V10M149.125 79.6111H159.062M19.9375 79.6111H29.875M43.2211 33.2998L36.1953 26.2691M135.779 33.2998L142.805 26.2691" stroke="#FAFAFA" stroke-width="20" stroke-linecap="round" stroke-linejoin="round"/>
</svg>
