<svg width="220" height="216" viewBox="0 0 220 216" fill="none" xmlns="http://www.w3.org/2000/svg">
<path d="M4.47687 207.183H4.41886C1.97826 207.183 0 209.157 0 211.591C0 214.025 1.97826 215.999 4.41886 215.999H4.47687C6.91746 215.999 8.89572 214.026 8.89572 211.591C8.89572 209.156 6.91703 207.183 4.47687 207.183Z" fill="#1E1E1E"/>
<path d="M212.104 207.183H212.046C209.605 207.183 207.627 209.157 207.627 211.591C207.627 214.026 209.605 216 212.046 216H212.104C214.544 216 216.523 214.026 216.523 211.591C216.523 209.157 214.544 207.183 212.104 207.183Z" fill="#1E1E1E"/>
<path d="M121.133 188.228H121.075C118.635 188.228 116.656 190.202 116.656 192.636C116.656 195.071 118.635 197.044 121.075 197.044H121.133C123.574 197.044 125.552 195.071 125.552 192.636C125.552 190.202 123.573 188.228 121.133 188.228Z" fill="#1E1E1E"/>
<path d="M152.011 188.228H135.433C132.992 188.228 131.014 190.202 131.014 192.636C131.014 195.071 132.992 197.044 135.433 197.044H152.011C154.451 197.044 156.429 195.071 156.429 192.636C156.429 190.202 154.451 188.228 152.011 188.228Z" fill="#1E1E1E"/>
<path d="M193.928 120.495C179.553 120.495 167.857 132.162 167.857 146.503C167.857 160.845 179.553 172.512 193.928 172.512C208.304 172.512 219.999 160.845 219.999 146.503C219.999 132.162 208.304 120.495 193.928 120.495ZM193.928 163.695C184.426 163.695 176.695 155.983 176.695 146.503C176.695 137.024 184.426 129.312 193.928 129.312C203.431 129.312 211.162 137.024 211.162 146.503C211.162 155.983 203.431 163.695 193.928 163.695Z" fill="#1E1E1E"/>
<path d="M193.93 129.783C191.489 129.783 189.511 131.757 189.511 134.191V142.095H187.001C184.56 142.095 182.582 144.069 182.582 146.504C182.582 148.938 184.56 150.912 187.001 150.912H193.93C196.37 150.912 198.348 148.938 198.348 146.504V134.191C198.348 131.757 196.37 129.783 193.93 129.783Z" fill="#1E1E1E"/>
<path d="M30.0501 98.3375V87.554C31.1415 88.6299 31.8179 90.0998 31.8179 91.7201C31.8179 94.1548 33.7961 96.1283 36.2367 96.1283C38.6773 96.1283 40.6556 94.1548 40.6556 91.7201C40.6556 85.0824 36.1847 79.4534 30.0506 77.5926V73.815C30.0506 71.3802 28.0723 69.4067 25.6317 69.4067C23.1911 69.4067 21.2129 71.3802 21.2129 73.815V77.5926C15.0787 79.4534 10.6079 85.082 10.6079 91.7201C10.6079 98.3577 15.0787 103.987 21.2129 105.847V116.631C20.1215 115.555 19.4451 114.085 19.4451 112.465C19.4451 110.03 17.4669 108.057 15.0263 108.057C12.5857 108.057 10.6074 110.03 10.6074 112.465C10.6074 119.103 15.0783 124.732 21.2124 126.592V129.358C21.2124 131.793 23.1907 133.766 25.6313 133.766C28.0719 133.766 30.0501 131.793 30.0501 129.358V126.592C36.1843 124.732 40.6551 119.103 40.6551 112.465C40.6551 105.828 36.1843 100.199 30.0501 98.3375ZM21.2124 95.8865C20.121 94.8106 19.4447 93.3408 19.4447 91.7205C19.4447 90.1002 20.1206 88.6304 21.2124 87.5544V95.8865ZM30.0501 116.631V108.299C31.1415 109.375 31.8179 110.845 31.8179 112.465C31.8179 114.085 31.1415 115.555 30.0501 116.631Z" fill="#1E1E1E"/>
<path d="M197.748 207.183H173.233V177.377C173.233 168.785 168.035 160.623 160.592 157.53L156.873 155.984C162.599 147.105 165.704 136.699 165.704 126.133V67.6648C165.704 54.7895 161.174 42.3539 152.912 32.4247L154.634 15.8309C154.816 14.0773 153.933 12.3845 152.39 11.5264C138.856 4.00358 123.528 0.0175746 108.063 0C108.029 0 107.996 0 107.962 0C92.717 0 77.5719 3.86856 64.1611 11.1894C62.6035 12.0399 61.7072 13.7373 61.8859 15.4995L63.5999 32.4354C55.344 42.3625 50.8164 54.7946 50.8164 67.6648V126.133C50.8164 136.699 53.9218 147.105 59.6473 155.984L55.9284 157.53C54.5805 158.09 53.3082 158.819 52.1257 159.684V155.609C52.1257 153.174 50.1474 151.2 47.7068 151.2H4.41886C1.97826 151.2 0 153.173 0 155.608V182.939C0 185.373 1.97826 187.347 4.41886 187.347H18.5589V207.194C16.2184 207.306 14.3536 209.229 14.3536 211.592C14.3536 214.027 16.3318 216 18.7724 216H197.748C200.189 216 202.167 214.027 202.167 211.592C202.167 209.157 200.189 207.183 197.748 207.183ZM8.83772 178.53V160.016H43.2875V167.951H28.3543C25.9137 167.951 23.9355 169.924 23.9355 172.359C23.9355 174.794 25.9137 176.767 28.3543 176.767H43.2871V178.531H8.83772V178.53ZM43.2871 207.183H27.3966V187.347H43.2875L43.2871 207.183ZM107.962 8.81602C107.992 8.81602 108.023 8.81602 108.054 8.81602C121.058 8.83102 133.955 11.9529 145.538 17.8687L144.321 29.6093H72.1957L70.978 17.5767C82.439 11.8367 95.1606 8.81602 107.962 8.81602ZM129.179 38.4258C124.787 40.431 117.74 42.2296 108.26 42.2296C98.7811 42.2296 91.7339 40.431 87.3416 38.4258H129.179ZM59.6537 67.6648C59.6537 57.012 63.3486 46.7103 70.0998 38.4249H74.1779C78.1353 46.7287 93.2773 51.0452 108.26 51.0452C123.243 51.0452 138.385 46.7287 142.343 38.4249H146.421C153.173 46.7112 156.867 57.0111 156.867 67.6648V126.133C156.867 135.534 153.929 144.784 148.553 152.525L132.153 145.708C131.142 145.288 130.489 144.311 130.489 143.218V136.353L142.039 129.746C142.119 129.701 142.198 129.652 142.276 129.601C148.046 125.799 151.839 119.047 152.43 111.528C152.441 111.406 152.447 111.282 152.448 111.156V111.155C152.448 111.154 152.448 111.153 152.448 111.152C152.448 111.15 152.448 111.149 152.448 111.148V111.146C152.448 111.143 152.448 111.142 152.448 111.14V71.1746C152.448 68.7398 150.469 66.7663 148.029 66.7663H68.491C66.0504 66.7663 64.0722 68.7398 64.0722 71.1746V111.139C64.0722 111.251 64.0765 111.363 64.0851 111.475C64.6651 119.045 68.436 125.821 74.1727 129.601C74.2518 129.653 74.3326 129.702 74.4151 129.749L86.0315 136.375V143.218C86.0315 144.311 85.378 145.288 84.3665 145.709L67.9672 152.526C62.5915 144.785 59.6537 135.535 59.6537 126.134V67.6648ZM108.26 161.965L93.9669 147.676C94.5483 146.292 94.8693 144.784 94.8693 143.218V141.415L98.2268 143.329C101.328 145.339 104.794 146.344 108.261 146.344C111.729 146.344 115.195 145.338 118.298 143.328L121.652 141.41V143.218C121.652 144.785 121.973 146.293 122.555 147.676L108.26 161.965ZM119.08 163.629L117.087 170.414L114.61 168.099L119.08 163.629ZM101.911 168.099L99.4338 170.414L97.4405 163.629L101.911 168.099ZM113.788 135.744C113.707 135.79 113.629 135.839 113.551 135.89C110.239 138.073 106.283 138.073 102.97 135.89C102.891 135.838 102.811 135.788 102.728 135.741L78.9349 122.171C75.558 119.891 73.3168 115.72 72.9103 110.961V75.5828H143.611V110.961C143.209 115.622 140.886 119.894 137.513 122.173L113.788 135.744ZM164.396 207.183H52.1248V177.377C52.1248 172.409 55.2211 167.375 59.3272 165.668L85.619 154.739L92.9726 179.77C93.8797 182.859 97.8719 183.956 100.234 181.747L108.26 174.246L116.286 181.747C118.648 183.956 122.64 182.859 123.547 179.77L130.901 154.74L157.193 165.668C161.299 167.375 164.395 172.409 164.395 177.377V207.183H164.396Z" fill="#1E1E1E"/>
<path d="M124.355 89.4854C121.631 89.4854 119.416 91.6955 119.416 94.4127C119.416 97.1294 121.631 99.3396 124.355 99.3396C127.079 99.3396 129.294 97.1294 129.294 94.4127C129.294 91.6959 127.079 89.4854 124.355 89.4854Z" fill="#1E1E1E"/>
<path d="M92.1287 89.4854C89.4049 89.4854 87.1895 91.6955 87.1895 94.4127C87.1895 97.1294 89.4049 99.3396 92.1287 99.3396C94.8524 99.3396 97.0679 97.1294 97.0679 94.4127C97.0683 91.6959 94.8524 89.4854 92.1287 89.4854Z" fill="#1E1E1E"/>
<path d="M112.575 110.255H103.938C101.498 110.255 99.5195 112.228 99.5195 114.663C99.5195 119.469 103.439 123.379 108.256 123.379C113.073 123.379 116.993 119.469 116.993 114.663C116.993 112.228 115.015 110.255 112.575 110.255Z" fill="#1E1E1E"/>
</svg>
