<svg width="60" height="60" viewBox="0 0 60 60" fill="none" xmlns="http://www.w3.org/2000/svg">
<g clip-path="url(#clip0_299_10285)">
<path d="M19.9997 37.5H8.74972C7.09252 37.4987 5.50358 36.8398 4.33176 35.668C3.15995 34.4961 2.50104 32.9072 2.49972 31.25V8.75C2.50104 7.0928 3.15995 5.50386 4.33176 4.33205C5.50358 3.16023 7.09252 2.50132 8.74972 2.5H31.2497C32.9069 2.50132 34.4959 3.16023 35.6677 4.33205C36.8395 5.50386 37.4984 7.0928 37.4997 8.75V20H34.9997V8.75C34.9984 7.75584 34.6029 6.80279 33.8999 6.09981C33.1969 5.39684 32.2439 5.00132 31.2497 5H8.74972C7.75556 5.00132 6.8025 5.39684 6.09953 6.09981C5.39655 6.80279 5.00104 7.75584 4.99972 8.75V31.25C5.00104 32.2442 5.39655 33.1972 6.09953 33.9002C6.8025 34.6032 7.75556 34.9987 8.74972 35H19.9997V37.5ZM19.9047 25.4725C17.1263 27.6296 13.9147 29.1612 10.4897 29.9625L9.88472 27.5375C12.8553 26.8425 15.6493 25.5383 18.0897 23.7075C15.1308 20.5889 13.0983 16.7082 12.2197 12.5H9.99972V10H18.1972L16.8372 8.64L18.6047 6.8725L21.7297 10H29.9997V12.5H27.7147C27.0937 15.2968 25.9888 17.9636 24.4497 20.38C22.362 21.4649 20.7436 23.2763 19.8997 25.4725H19.9047ZM19.9847 22.015C22.5294 19.3653 24.3121 16.0781 25.1447 12.5H14.8047C15.6446 16.0797 17.4341 19.3667 19.9847 22.015ZM57.4997 51.1175V28.8825C57.509 28.0496 57.3532 27.223 57.0416 26.4505C56.7299 25.678 56.2684 24.9749 55.6837 24.3815C55.099 23.7882 54.4026 23.3165 53.6348 22.9936C52.8669 22.6707 52.0427 22.5029 51.2097 22.5H28.8822C27.1901 22.502 25.5678 23.1751 24.3713 24.3716C23.1748 25.5681 22.5017 27.1904 22.4997 28.8825V51.1175C22.5017 52.8096 23.1748 54.4319 24.3713 55.6284C25.5678 56.8249 27.1901 57.498 28.8822 57.5H51.1172C52.8093 57.498 54.4316 56.8249 55.6281 55.6284C56.8246 54.4319 57.4977 52.8096 57.4997 51.1175ZM51.2097 25C52.2147 25.0007 53.1783 25.4002 53.8889 26.1108C54.5995 26.8214 54.9991 27.785 54.9997 28.79V51.21C54.9991 52.215 54.5995 53.1786 53.8889 53.8892C53.1783 54.5998 52.2147 54.9993 51.2097 55H28.7897C27.7847 54.9993 26.8211 54.5998 26.1105 53.8892C25.3999 53.1786 25.0004 52.215 24.9997 51.21V28.79C25.0004 27.785 25.3999 26.8214 26.1105 26.1108C26.8211 25.4002 27.7847 25.0007 28.7897 25H51.2097ZM45.9947 45H34.0047L31.1072 50.575L28.8922 49.425L39.9997 28.0375L51.1072 49.425L48.8922 50.575L45.9947 45ZM44.6947 42.5L39.9997 33.4625L35.3047 42.5H44.6947ZM14.9997 55.025C13.6742 55.023 12.4036 54.4956 11.4664 53.5583C10.5291 52.6211 10.0017 51.3505 9.99972 50.025V44.2675L14.1147 48.3825L15.8822 46.615L8.76472 39.5L1.64722 46.615L3.41472 48.3825L7.49972 44.3V50.03C7.5017 52.0185 8.29252 53.925 9.69861 55.3311C11.1047 56.7372 13.0112 57.528 14.9997 57.53H20.1447V55.03L14.9997 55.025ZM56.6147 11.6175L52.4997 15.7325V10C52.4977 8.01149 51.7069 6.10498 50.3008 4.69889C48.8947 3.2928 46.9882 2.50199 44.9997 2.5H39.9997V5H44.9997C46.3252 5.00198 47.5958 5.5294 48.5331 6.46666C49.4703 7.40391 49.9977 8.67453 49.9997 10V15.7025L45.9147 11.615L44.1472 13.3825L51.2647 20.5025L58.3847 13.3825L56.6147 11.6175Z" fill="#FAFAFA"/>
</g>
<defs>
<clipPath id="clip0_299_10285">
<rect width="60" height="60" fill="white"/>
</clipPath>
</defs>
</svg>
