<?xml version="1.0" standalone="no"?>
<!DOCTYPE svg PUBLIC "-//W3C//DTD SVG 20010904//EN"
 "http://www.w3.org/TR/2001/REC-SVG-20010904/DTD/svg10.dtd">
<svg version="1.0" xmlns="http://www.w3.org/2000/svg"
 width="93.000000pt" height="93.000000pt" viewBox="0 0 93.000000 93.000000"
 preserveAspectRatio="xMidYMid meet">
<metadata>
Created by potrace 1.14, written by Peter Selinger 2001-2017
</metadata>
<g transform="translate(0.000000,93.000000) scale(0.100000,-0.100000)"
fill="#000000" stroke="none">
<path d="M335 858 c-66 -39 -155 -91 -198 -116 l-77 -45 0 -232 0 -233 201
-116 202 -116 201 116 201 116 0 230 c0 218 -1 230 -20 244 -26 20 -380 224
-386 223 -2 0 -58 -32 -124 -71z m300 -85 c83 -48 157 -92 166 -99 13 -12 15
-44 14 -214 -1 -110 -3 -201 -6 -203 -2 -2 -81 -47 -176 -101 l-172 -97 -175
102 -176 101 0 203 0 204 128 72 c70 40 147 86 172 101 24 16 51 26 60 23 8
-4 83 -45 165 -92z"/>
<path d="M509 744 l-56 -35 -52 31 c-47 29 -54 31 -82 20 -16 -7 -32 -16 -34
-20 -5 -7 50 -46 85 -61 15 -6 16 -5 -69 -57 l-34 -20 32 -20 33 -20 60 34 60
34 64 -35 c64 -36 64 -36 94 -18 17 9 30 20 30 23 0 3 -25 18 -55 35 -30 16
-55 32 -55 35 0 3 25 20 56 39 l56 33 -29 19 c-37 25 -38 24 -104 -17z"/>
<path d="M130 462 l0 -190 35 -21 35 -20 0 74 c0 41 2 75 5 75 2 0 19 -8 37
-18 18 -10 57 -31 86 -47 l52 -28 0 -78 c0 -77 1 -79 30 -94 16 -8 31 -15 35
-15 3 0 5 83 5 185 l0 185 -32 20 -33 20 -3 -70 c-2 -39 -5 -70 -7 -70 -2 0
-19 8 -37 18 -18 10 -56 31 -85 47 l-52 28 -3 75 c-3 74 -4 76 -35 95 l-33 19
0 -190z"/>
<path d="M635 564 c-82 -48 -152 -88 -154 -90 -5 -5 -4 -364 1 -370 8 -7 308
167 309 180 4 42 3 108 -2 111 -13 9 -64 -36 -64 -57 0 -17 -18 -33 -80 -70
-44 -26 -84 -46 -90 -44 -10 3 -15 190 -5 204 11 17 162 102 170 97 5 -3 7
-14 5 -25 -5 -25 12 -25 45 -2 22 15 25 24 25 85 1 37 -2 67 -5 67 -3 0 -72
-39 -155 -86z"/>
</g>
</svg>
