<svg width="197" height="178" viewBox="0 0 197 178" fill="none" xmlns="http://www.w3.org/2000/svg">
<path d="M135.848 2H61.9534C53.7356 2 46.1377 6.38317 42.0288 13.5038L5.08167 77.4962C0.972775 84.6168 0.972775 93.3832 5.08167 100.504L42.0288 164.496C46.1377 171.617 53.7356 176 61.9534 176H135.848C144.066 176 151.663 171.617 155.772 164.496L192.72 100.504C196.828 93.3832 196.828 84.6168 192.72 77.4962L155.772 13.5038C151.663 6.38317 144.066 2 135.848 2Z" fill="#234141"/>
<path d="M19.5372 80.5407C18.9338 80.5407 18.4455 80.058 18.44 79.4546C18.3358 68.9547 21.4463 58.6358 27.4423 49.6061C33.4274 40.5983 41.722 33.7081 51.4374 29.687C51.997 29.4566 52.6388 29.7199 52.8692 30.2794C53.0996 30.839 52.8363 31.4808 52.2767 31.7112C33.1421 39.6328 20.4259 58.8114 20.6344 79.4272C20.6399 80.0306 20.1516 80.5298 19.5482 80.5353H19.5372V80.5407Z" fill="url(#paint0_linear_43_11409)"/>
<path d="M58.4645 29.8735C57.9543 29.8735 57.499 29.5169 57.3892 29.0012C57.2631 28.4088 57.6471 27.8273 58.2395 27.7011C59.216 27.4981 60.2145 27.3225 61.2074 27.1854C61.8108 27.1031 62.3594 27.5201 62.4472 28.1235C62.5295 28.7215 62.1126 29.2756 61.5091 29.3633C60.5601 29.495 59.611 29.6596 58.6839 29.8516C58.6071 29.868 58.5358 29.8735 58.459 29.8735H58.4645Z" fill="url(#paint1_linear_43_11409)"/>
<path d="M122.391 88.1113C122.32 88.1113 122.248 88.1057 122.177 88.0893C121.585 87.9741 121.195 87.3981 121.31 86.8001C124.295 71.6482 120.817 57.1876 111.765 47.132C100.684 34.9973 84.78 28.2826 68.125 28.7435C67.5325 28.7764 67.0169 28.2826 67.0004 27.6792C66.984 27.0757 67.4612 26.5711 68.0647 26.5546C85.3561 26.0773 101.874 33.0498 113.389 45.6618C122.912 56.2385 126.577 71.3904 123.461 87.228C123.357 87.7492 122.901 88.1113 122.386 88.1113H122.391Z" fill="url(#paint2_linear_43_11409)"/>
<path d="M48.123 149.256C47.8542 149.256 47.5799 149.158 47.366 148.955C42.7085 144.539 36.6686 136.985 34.348 126.062C33.5691 122.403 30.3489 103.461 43.1254 89.8997C53.6088 78.7744 69.238 76.9366 79.4417 78.7524C88.8609 80.4256 96.3326 85.5164 102.34 89.6089C108.764 93.9866 113.843 97.4427 118.534 95.2812C120.114 94.5516 121.48 93.2954 122.588 91.5454C122.912 91.0352 123.592 90.8816 124.102 91.2053C124.612 91.529 124.766 92.2092 124.442 92.7194C123.104 94.8314 121.425 96.3674 119.455 97.2726C113.635 99.9552 107.831 95.9999 101.105 91.4192C94.9666 87.239 88.0161 82.4992 79.0632 80.9083C69.4026 79.1913 54.6128 80.9083 44.7273 91.3973C32.6968 104.163 35.7634 122.129 36.4985 125.602C38.6983 135.97 44.4475 143.156 48.88 147.358C49.3189 147.775 49.3409 148.472 48.9239 148.911C48.71 149.141 48.4192 149.251 48.1285 149.251L48.123 149.256Z" fill="url(#paint3_linear_43_11409)"/>
<path d="M149.284 22.3249C149.004 22.3249 148.73 22.2207 148.51 22.0068C134.499 8.17698 110.504 6.83297 95.0231 19.0115C94.5458 19.3846 93.8601 19.3022 93.4816 18.825C93.1085 18.3477 93.1908 17.6565 93.6681 17.2835C109.989 4.4521 135.278 5.86745 150.052 20.4433C150.485 20.8712 150.485 21.5624 150.063 21.9958C149.849 22.2152 149.563 22.3195 149.284 22.3195V22.3249Z" fill="url(#paint4_linear_43_11409)"/>
<path d="M125.842 91.2656C125.271 91.2656 124.789 90.8212 124.75 90.2397C124.712 89.6363 125.167 89.1151 125.776 89.0712C137.132 88.3306 147.045 83.2782 152.964 75.214C159.086 66.8755 161.687 55.8215 160.09 44.8882C159.158 38.4972 156.749 32.4299 153.118 27.3445C152.767 26.8508 152.882 26.165 153.375 25.8139C153.869 25.4628 154.555 25.5781 154.906 26.0718C158.735 31.4424 161.281 37.8389 162.263 44.5755C163.936 56.0739 161.193 67.7148 154.73 76.5196C148.422 85.105 137.922 90.4811 125.919 91.2656C125.897 91.2656 125.869 91.2656 125.847 91.2656H125.842Z" fill="url(#paint5_linear_43_11409)"/>
<path d="M151.011 112.161C138.745 112.161 127.027 104.261 122.611 92.7411C122.392 92.1761 122.677 91.5398 123.242 91.3258C123.807 91.1064 124.443 91.3917 124.657 91.9567C128.991 103.258 140.895 110.79 152.964 109.895C165.851 108.93 176.471 98.7976 177.135 86.8275C177.503 80.1896 174.946 73.3268 170.119 68C169.713 67.5502 169.746 66.859 170.195 66.4475C170.645 66.0416 171.336 66.0745 171.748 66.5243C176.965 72.2845 179.73 79.7288 179.324 86.9481C178.594 99.999 167.09 111.042 153.123 112.084C152.416 112.139 151.714 112.161 151.011 112.161Z" fill="url(#paint6_linear_43_11409)"/>
<path d="M98.434 169.483C98.3298 169.483 98.2256 169.466 98.1214 169.439C96.4482 168.945 81.6364 164.194 77.6208 150.26C75.3441 142.366 77.0447 133.359 82.0478 126.748C87.3801 119.704 94.7476 117.729 101.868 115.82C108.72 113.983 115.193 112.249 119.203 106.034C121.623 102.287 122.698 97.6292 122.413 92.1927C122.38 91.5892 122.846 91.0736 123.45 91.0407C124.053 91.0187 124.569 91.4741 124.602 92.0775C124.914 97.9858 123.718 103.082 121.047 107.224C116.581 114.147 109.389 116.078 102.433 117.938C95.6692 119.748 88.6747 121.624 83.7978 128.07C79.2007 134.143 77.6427 142.41 79.7273 149.651C83.4193 162.461 97.1833 166.872 98.7413 167.332C99.3228 167.502 99.6519 168.117 99.4818 168.698C99.3392 169.176 98.9058 169.483 98.4286 169.483H98.434Z" fill="url(#paint7_linear_43_11409)"/>
<path d="M140.336 160.947C140.139 160.947 139.941 160.892 139.76 160.782C131.97 155.96 127.17 150.408 125.497 144.27C123.901 138.411 125.541 133.743 127.28 128.8C128.783 124.526 130.335 120.11 130.154 114.29C129.94 107.46 127.346 100.619 122.447 93.9701C122.085 93.4819 122.194 92.7961 122.677 92.4341C123.165 92.072 123.851 92.1817 124.213 92.6645C129.381 99.6809 132.118 106.933 132.349 114.218C132.546 120.45 130.851 125.272 129.353 129.524C127.658 134.335 126.199 138.488 127.614 143.688C129.134 149.267 133.61 154.391 140.912 158.911C141.428 159.23 141.587 159.904 141.269 160.42C141.06 160.755 140.704 160.941 140.336 160.941V160.947Z" fill="url(#paint8_linear_43_11409)"/>
<path d="M119.072 82.3895C118.694 82.3895 118.326 82.1975 118.123 81.8464C117.339 80.5024 98.4618 48.8929 64.3179 48.6461C47.4599 48.5089 34.4749 56.244 28.2539 60.863C27.7657 61.2251 27.08 61.1209 26.7179 60.6327C26.3558 60.1444 26.46 59.4587 26.9483 59.0966C33.3393 54.3568 46.6041 46.4463 63.9174 46.4463C64.0546 46.4463 64.1972 46.4463 64.3343 46.4463C99.7125 46.7041 119.209 79.3449 120.021 80.7328C120.328 81.254 120.153 81.9287 119.626 82.2359C119.451 82.3402 119.259 82.384 119.072 82.384V82.3895Z" fill="url(#paint9_linear_43_11409)"/>
<path d="M144.516 56.573C144.467 56.573 144.423 56.573 144.374 56.562C143.77 56.4852 143.348 55.9312 143.43 55.3332C144.802 44.8223 142.536 35.2934 137.05 28.4964C131.186 21.2332 121.47 16.7074 111.075 16.3782C105.567 16.2027 99.9274 17.1737 94.7488 19.1705C94.1838 19.3899 93.5474 19.1102 93.328 18.5397C93.1085 17.9746 93.3938 17.3382 93.9588 17.1188C99.4063 15.0177 105.364 14.0028 111.14 14.1784C122.173 14.524 132.491 19.3571 138.756 27.1086C144.626 34.3773 147.056 44.4987 145.608 55.6075C145.537 56.1616 145.065 56.562 144.522 56.562L144.516 56.573Z" fill="url(#paint10_linear_43_11409)"/>
<path d="M141.432 68.6255C141.3 68.6255 141.169 68.6035 141.037 68.5541C140.472 68.3347 140.187 67.7039 140.406 67.1388C141.081 65.3833 141.668 63.573 142.151 61.7517C142.304 61.1647 142.908 60.8191 143.495 60.9727C144.082 61.1263 144.427 61.7297 144.274 62.3167C143.769 64.2148 143.16 66.102 142.458 67.9287C142.288 68.3621 141.876 68.6309 141.432 68.6309V68.6255Z" fill="url(#paint11_linear_43_11409)"/>
<path d="M125.842 91.2656C125.53 91.2656 125.222 91.134 125.003 90.8761C124.614 90.4153 124.668 89.7186 125.135 89.3291C130.308 84.9623 134.614 79.6027 137.577 73.8371C137.851 73.2994 138.515 73.0855 139.052 73.3653C139.59 73.6396 139.804 74.3033 139.524 74.8409C136.43 80.8644 131.943 86.4545 126.545 91.0078C126.336 91.1833 126.089 91.2656 125.837 91.2656H125.842Z" fill="url(#paint12_linear_43_11409)"/>
<path d="M143.83 101.436C135.859 101.436 128.294 98.4576 122.868 93.1418C122.435 92.7194 122.429 92.0226 122.852 91.5892C123.274 91.1559 123.971 91.1504 124.404 91.5728C129.748 96.8117 137.362 99.5931 145.283 99.2091C152.931 98.836 159.953 95.4842 164.55 90.0038C167.128 86.9317 168.884 83.2782 169.635 79.4272C169.75 78.8347 170.326 78.4452 170.924 78.5604C171.517 78.6756 171.906 79.2516 171.791 79.8495C170.968 84.0626 169.048 88.0619 166.234 91.4137C161.247 97.3549 153.655 100.997 145.399 101.398C144.877 101.425 144.356 101.436 143.841 101.436H143.83Z" fill="url(#paint13_linear_43_11409)"/>
<path d="M109.203 104.092C108.188 104.092 107.146 103.998 106.087 103.812C105.489 103.708 105.094 103.137 105.198 102.539C105.303 101.941 105.868 101.541 106.471 101.65C113.679 102.94 119.67 99.2366 122.49 91.7539C122.704 91.1888 123.335 90.8981 123.905 91.112C124.47 91.326 124.761 91.9569 124.547 92.5274C121.782 99.8675 116.06 104.092 109.208 104.092H109.203Z" fill="url(#paint14_linear_43_11409)"/>
<path d="M99.6256 101.979C99.5104 101.979 99.3897 101.957 99.269 101.919C98.671 101.711 98.0676 101.508 97.4696 101.299C96.8991 101.102 96.5974 100.476 96.7949 99.9003C96.9924 99.3297 97.6178 99.0225 98.1938 99.2255C98.7917 99.434 99.3842 99.6369 99.9822 99.8454C100.553 100.043 100.86 100.668 100.662 101.239C100.509 101.694 100.081 101.979 99.6256 101.979Z" fill="url(#paint15_linear_43_11409)"/>
<path d="M48.1245 149.256C47.7515 149.256 47.3894 149.064 47.181 148.724C40.4827 137.528 38.9961 124.543 43.2147 113.999C50.8181 95.8682 73.7324 90.3549 90.3655 96.5704C90.9361 96.7843 91.2213 97.4152 91.0074 97.9802C90.7934 98.5508 90.1625 98.836 89.5975 98.6221C73.919 92.7632 52.3541 97.876 45.2444 114.827C41.2837 124.724 42.71 136.979 49.0626 147.594C49.3753 148.115 49.2052 148.79 48.6841 149.097C48.5085 149.202 48.311 149.251 48.119 149.251L48.1245 149.256Z" fill="url(#paint16_linear_43_11409)"/>
<path d="M98.4343 169.483C98.193 169.483 97.9516 169.406 97.7486 169.241C90.7377 163.657 86.4752 153.837 87.3804 145.361C87.4462 144.758 87.9783 144.314 88.5872 144.385C89.1907 144.451 89.6241 144.988 89.5637 145.592C88.7354 153.365 92.6632 162.384 99.1201 167.524C99.5918 167.903 99.6741 168.594 99.2956 169.066C99.0817 169.34 98.758 169.477 98.4343 169.477V169.483Z" fill="url(#paint17_linear_43_11409)"/>
<path d="M90.0246 139.13C89.8984 139.13 89.7722 139.108 89.646 139.064C89.0755 138.855 88.7848 138.224 88.9932 137.654C90.2659 134.203 92.2847 131.153 94.8411 128.833C98.8019 125.234 103.684 124.016 108.408 122.842C109.741 122.507 111.123 122.167 112.473 121.772C118.183 120.105 121.173 115.842 120.668 110.077C120.614 109.473 121.063 108.941 121.667 108.886C122.281 108.826 122.802 109.281 122.857 109.885C123.45 116.692 119.802 121.92 113.093 123.879C111.699 124.285 110.3 124.636 108.945 124.971C104.282 126.134 99.8826 127.231 96.3278 130.456C94.0292 132.541 92.2134 135.289 91.0614 138.411C90.8968 138.855 90.4799 139.13 90.03 139.13H90.0246Z" fill="url(#paint18_linear_43_11409)"/>
<path d="M135.848 2H61.9534C53.7356 2 46.1377 6.38317 42.0288 13.5038L5.08167 77.4962C0.972776 84.6168 0.972776 93.3832 5.08167 100.504L42.0288 164.496C46.1377 171.617 53.7356 176 61.9534 176H135.848C144.066 176 151.663 171.617 155.772 164.496L192.72 100.504C196.828 93.3832 196.828 84.6168 192.72 77.4962L155.772 13.5038C151.663 6.38317 144.066 2 135.848 2Z" stroke="url(#paint19_linear_43_11409)" stroke-width="2.19434" stroke-miterlimit="10"/>
<defs>
<linearGradient id="paint0_linear_43_11409" x1="-6.15849" y1="71.5988" x2="163.393" y2="4.64405" gradientUnits="userSpaceOnUse">
<stop stop-color="#C79D43"/>
<stop offset="0.21" stop-color="#F4EE8F"/>
<stop offset="0.57" stop-color="#BE8D32"/>
<stop offset="0.67" stop-color="#A87826"/>
<stop offset="0.82" stop-color="#845413"/>
<stop offset="0.84" stop-color="#8B5C18"/>
<stop offset="0.87" stop-color="#A07227"/>
<stop offset="0.91" stop-color="#C29540"/>
<stop offset="0.92" stop-color="#D3A74C"/>
<stop offset="1" stop-color="#F2E899"/>
</linearGradient>
<linearGradient id="paint1_linear_43_11409" x1="-11.9628" y1="56.9079" x2="157.588" y2="-10.0467" gradientUnits="userSpaceOnUse">
<stop stop-color="#C79D43"/>
<stop offset="0.21" stop-color="#F4EE8F"/>
<stop offset="0.57" stop-color="#BE8D32"/>
<stop offset="0.67" stop-color="#A87826"/>
<stop offset="0.82" stop-color="#845413"/>
<stop offset="0.84" stop-color="#8B5C18"/>
<stop offset="0.87" stop-color="#A07227"/>
<stop offset="0.91" stop-color="#C29540"/>
<stop offset="0.92" stop-color="#D3A74C"/>
<stop offset="1" stop-color="#F2E899"/>
</linearGradient>
<linearGradient id="paint2_linear_43_11409" x1="2.64596" y1="93.8988" x2="172.197" y2="26.9441" gradientUnits="userSpaceOnUse">
<stop stop-color="#C79D43"/>
<stop offset="0.21" stop-color="#F4EE8F"/>
<stop offset="0.57" stop-color="#BE8D32"/>
<stop offset="0.67" stop-color="#A87826"/>
<stop offset="0.82" stop-color="#845413"/>
<stop offset="0.84" stop-color="#8B5C18"/>
<stop offset="0.87" stop-color="#A07227"/>
<stop offset="0.91" stop-color="#C29540"/>
<stop offset="0.92" stop-color="#D3A74C"/>
<stop offset="1" stop-color="#F2E899"/>
</linearGradient>
<linearGradient id="paint3_linear_43_11409" x1="16.6123" y1="129.277" x2="186.169" y2="62.3223" gradientUnits="userSpaceOnUse">
<stop stop-color="#C79D43"/>
<stop offset="0.21" stop-color="#F4EE8F"/>
<stop offset="0.57" stop-color="#BE8D32"/>
<stop offset="0.67" stop-color="#A87826"/>
<stop offset="0.82" stop-color="#845413"/>
<stop offset="0.84" stop-color="#8B5C18"/>
<stop offset="0.87" stop-color="#A07227"/>
<stop offset="0.91" stop-color="#C29540"/>
<stop offset="0.92" stop-color="#D3A74C"/>
<stop offset="1" stop-color="#F2E899"/>
</linearGradient>
<linearGradient id="paint4_linear_43_11409" x1="-6.92583" y1="69.6622" x2="162.631" y2="2.70733" gradientUnits="userSpaceOnUse">
<stop stop-color="#C79D43"/>
<stop offset="0.21" stop-color="#F4EE8F"/>
<stop offset="0.57" stop-color="#BE8D32"/>
<stop offset="0.67" stop-color="#A87826"/>
<stop offset="0.82" stop-color="#845413"/>
<stop offset="0.84" stop-color="#8B5C18"/>
<stop offset="0.87" stop-color="#A07227"/>
<stop offset="0.91" stop-color="#C29540"/>
<stop offset="0.92" stop-color="#D3A74C"/>
<stop offset="1" stop-color="#F2E899"/>
</linearGradient>
<linearGradient id="paint5_linear_43_11409" x1="9.43231" y1="111.08" x2="178.983" y2="44.1257" gradientUnits="userSpaceOnUse">
<stop stop-color="#C79D43"/>
<stop offset="0.21" stop-color="#F4EE8F"/>
<stop offset="0.57" stop-color="#BE8D32"/>
<stop offset="0.67" stop-color="#A87826"/>
<stop offset="0.82" stop-color="#845413"/>
<stop offset="0.84" stop-color="#8B5C18"/>
<stop offset="0.87" stop-color="#A07227"/>
<stop offset="0.91" stop-color="#C29540"/>
<stop offset="0.92" stop-color="#D3A74C"/>
<stop offset="1" stop-color="#F2E899"/>
</linearGradient>
<linearGradient id="paint6_linear_43_11409" x1="22.7414" y1="144.791" x2="192.292" y2="77.8361" gradientUnits="userSpaceOnUse">
<stop stop-color="#C79D43"/>
<stop offset="0.21" stop-color="#F4EE8F"/>
<stop offset="0.57" stop-color="#BE8D32"/>
<stop offset="0.67" stop-color="#A87826"/>
<stop offset="0.82" stop-color="#845413"/>
<stop offset="0.84" stop-color="#8B5C18"/>
<stop offset="0.87" stop-color="#A07227"/>
<stop offset="0.91" stop-color="#C29540"/>
<stop offset="0.92" stop-color="#D3A74C"/>
<stop offset="1" stop-color="#F2E899"/>
</linearGradient>
<linearGradient id="paint7_linear_43_11409" x1="29.68" y1="162.362" x2="199.231" y2="95.4074" gradientUnits="userSpaceOnUse">
<stop stop-color="#C79D43"/>
<stop offset="0.21" stop-color="#F4EE8F"/>
<stop offset="0.57" stop-color="#BE8D32"/>
<stop offset="0.67" stop-color="#A87826"/>
<stop offset="0.82" stop-color="#845413"/>
<stop offset="0.84" stop-color="#8B5C18"/>
<stop offset="0.87" stop-color="#A07227"/>
<stop offset="0.91" stop-color="#C29540"/>
<stop offset="0.92" stop-color="#D3A74C"/>
<stop offset="1" stop-color="#F2E899"/>
</linearGradient>
<linearGradient id="paint8_linear_43_11409" x1="31.2391" y1="166.312" x2="200.796" y2="99.3572" gradientUnits="userSpaceOnUse">
<stop stop-color="#C79D43"/>
<stop offset="0.21" stop-color="#F4EE8F"/>
<stop offset="0.57" stop-color="#BE8D32"/>
<stop offset="0.67" stop-color="#A87826"/>
<stop offset="0.82" stop-color="#845413"/>
<stop offset="0.84" stop-color="#8B5C18"/>
<stop offset="0.87" stop-color="#A07227"/>
<stop offset="0.91" stop-color="#C29540"/>
<stop offset="0.92" stop-color="#D3A74C"/>
<stop offset="1" stop-color="#F2E899"/>
</linearGradient>
<linearGradient id="paint9_linear_43_11409" x1="3.82545" y1="96.8886" x2="173.382" y2="29.9392" gradientUnits="userSpaceOnUse">
<stop stop-color="#C79D43"/>
<stop offset="0.21" stop-color="#F4EE8F"/>
<stop offset="0.57" stop-color="#BE8D32"/>
<stop offset="0.67" stop-color="#A87826"/>
<stop offset="0.82" stop-color="#845413"/>
<stop offset="0.84" stop-color="#8B5C18"/>
<stop offset="0.87" stop-color="#A07227"/>
<stop offset="0.91" stop-color="#C29540"/>
<stop offset="0.92" stop-color="#D3A74C"/>
<stop offset="1" stop-color="#F2E899"/>
</linearGradient>
<linearGradient id="paint10_linear_43_11409" x1="-1.0999" y1="84.4082" x2="168.451" y2="17.4535" gradientUnits="userSpaceOnUse">
<stop stop-color="#C79D43"/>
<stop offset="0.21" stop-color="#F4EE8F"/>
<stop offset="0.57" stop-color="#BE8D32"/>
<stop offset="0.67" stop-color="#A87826"/>
<stop offset="0.82" stop-color="#845413"/>
<stop offset="0.84" stop-color="#8B5C18"/>
<stop offset="0.87" stop-color="#A07227"/>
<stop offset="0.91" stop-color="#C29540"/>
<stop offset="0.92" stop-color="#D3A74C"/>
<stop offset="1" stop-color="#F2E899"/>
</linearGradient>
<linearGradient id="paint11_linear_43_11409" x1="11.538" y1="116.418" x2="181.089" y2="49.4686" gradientUnits="userSpaceOnUse">
<stop stop-color="#C79D43"/>
<stop offset="0.21" stop-color="#F4EE8F"/>
<stop offset="0.57" stop-color="#BE8D32"/>
<stop offset="0.67" stop-color="#A87826"/>
<stop offset="0.82" stop-color="#845413"/>
<stop offset="0.84" stop-color="#8B5C18"/>
<stop offset="0.87" stop-color="#A07227"/>
<stop offset="0.91" stop-color="#C29540"/>
<stop offset="0.92" stop-color="#D3A74C"/>
<stop offset="1" stop-color="#F2E899"/>
</linearGradient>
<linearGradient id="paint12_linear_43_11409" x1="16.1419" y1="128.081" x2="185.698" y2="61.1264" gradientUnits="userSpaceOnUse">
<stop stop-color="#C79D43"/>
<stop offset="0.21" stop-color="#F4EE8F"/>
<stop offset="0.57" stop-color="#BE8D32"/>
<stop offset="0.67" stop-color="#A87826"/>
<stop offset="0.82" stop-color="#845413"/>
<stop offset="0.84" stop-color="#8B5C18"/>
<stop offset="0.87" stop-color="#A07227"/>
<stop offset="0.91" stop-color="#C29540"/>
<stop offset="0.92" stop-color="#D3A74C"/>
<stop offset="1" stop-color="#F2E899"/>
</linearGradient>
<linearGradient id="paint13_linear_43_11409" x1="21.5502" y1="141.774" x2="191.101" y2="74.8247" gradientUnits="userSpaceOnUse">
<stop stop-color="#C79D43"/>
<stop offset="0.21" stop-color="#F4EE8F"/>
<stop offset="0.57" stop-color="#BE8D32"/>
<stop offset="0.67" stop-color="#A87826"/>
<stop offset="0.82" stop-color="#845413"/>
<stop offset="0.84" stop-color="#8B5C18"/>
<stop offset="0.87" stop-color="#A07227"/>
<stop offset="0.91" stop-color="#C29540"/>
<stop offset="0.92" stop-color="#D3A74C"/>
<stop offset="1" stop-color="#F2E899"/>
</linearGradient>
<linearGradient id="paint14_linear_43_11409" x1="19.4271" y1="136.398" x2="188.978" y2="69.443" gradientUnits="userSpaceOnUse">
<stop stop-color="#C79D43"/>
<stop offset="0.21" stop-color="#F4EE8F"/>
<stop offset="0.57" stop-color="#BE8D32"/>
<stop offset="0.67" stop-color="#A87826"/>
<stop offset="0.82" stop-color="#845413"/>
<stop offset="0.84" stop-color="#8B5C18"/>
<stop offset="0.87" stop-color="#A07227"/>
<stop offset="0.91" stop-color="#C29540"/>
<stop offset="0.92" stop-color="#D3A74C"/>
<stop offset="1" stop-color="#F2E899"/>
</linearGradient>
<linearGradient id="paint15_linear_43_11409" x1="17.8865" y1="132.497" x2="187.438" y2="65.5427" gradientUnits="userSpaceOnUse">
<stop stop-color="#C79D43"/>
<stop offset="0.21" stop-color="#F4EE8F"/>
<stop offset="0.57" stop-color="#BE8D32"/>
<stop offset="0.67" stop-color="#A87826"/>
<stop offset="0.82" stop-color="#845413"/>
<stop offset="0.84" stop-color="#8B5C18"/>
<stop offset="0.87" stop-color="#A07227"/>
<stop offset="0.91" stop-color="#C29540"/>
<stop offset="0.92" stop-color="#D3A74C"/>
<stop offset="1" stop-color="#F2E899"/>
</linearGradient>
<linearGradient id="paint16_linear_43_11409" x1="19.653" y1="136.968" x2="189.204" y2="70.0133" gradientUnits="userSpaceOnUse">
<stop stop-color="#C79D43"/>
<stop offset="0.21" stop-color="#F4EE8F"/>
<stop offset="0.57" stop-color="#BE8D32"/>
<stop offset="0.67" stop-color="#A87826"/>
<stop offset="0.82" stop-color="#845413"/>
<stop offset="0.84" stop-color="#8B5C18"/>
<stop offset="0.87" stop-color="#A07227"/>
<stop offset="0.91" stop-color="#C29540"/>
<stop offset="0.92" stop-color="#D3A74C"/>
<stop offset="1" stop-color="#F2E899"/>
</linearGradient>
<linearGradient id="paint17_linear_43_11409" x1="36.4278" y1="179.45" x2="205.979" y2="112.496" gradientUnits="userSpaceOnUse">
<stop stop-color="#C79D43"/>
<stop offset="0.21" stop-color="#F4EE8F"/>
<stop offset="0.57" stop-color="#BE8D32"/>
<stop offset="0.67" stop-color="#A87826"/>
<stop offset="0.82" stop-color="#845413"/>
<stop offset="0.84" stop-color="#8B5C18"/>
<stop offset="0.87" stop-color="#A07227"/>
<stop offset="0.91" stop-color="#C29540"/>
<stop offset="0.92" stop-color="#D3A74C"/>
<stop offset="1" stop-color="#F2E899"/>
</linearGradient>
<linearGradient id="paint18_linear_43_11409" x1="26.8551" y1="155.214" x2="196.412" y2="88.2594" gradientUnits="userSpaceOnUse">
<stop stop-color="#C79D43"/>
<stop offset="0.21" stop-color="#F4EE8F"/>
<stop offset="0.57" stop-color="#BE8D32"/>
<stop offset="0.67" stop-color="#A87826"/>
<stop offset="0.82" stop-color="#845413"/>
<stop offset="0.84" stop-color="#8B5C18"/>
<stop offset="0.87" stop-color="#A07227"/>
<stop offset="0.91" stop-color="#C29540"/>
<stop offset="0.92" stop-color="#D3A74C"/>
<stop offset="1" stop-color="#F2E899"/>
</linearGradient>
<linearGradient id="paint19_linear_43_11409" x1="0.90146" y1="89" x2="196.9" y2="89" gradientUnits="userSpaceOnUse">
<stop stop-color="#C79D43"/>
<stop offset="0.21" stop-color="#F4EE8F"/>
<stop offset="0.57" stop-color="#BE8D32"/>
<stop offset="0.67" stop-color="#A87826"/>
<stop offset="0.82" stop-color="#845413"/>
<stop offset="0.84" stop-color="#8B5C18"/>
<stop offset="0.87" stop-color="#A07227"/>
<stop offset="0.91" stop-color="#C29540"/>
<stop offset="0.92" stop-color="#D3A74C"/>
<stop offset="1" stop-color="#F2E899"/>
</linearGradient>
</defs>
</svg>
